<?xml version="1.0" encoding="UTF-8"?>
<svg width="160px" height="160px" viewBox="0 0 160 160" version="1.1" xmlns="http://www.w3.org/2000/svg" xmlns:xlink="http://www.w3.org/1999/xlink">
    <title>Light</title>
    <defs>
        <path d="M20,0 L140,0 C151.045695,-3.55271368e-15 160,8.954305 160,20 L160,140 C160,151.045695 151.045695,160 140,160 L20,160 C8.954305,160 0,151.045695 0,140 L0,20 C0,8.954305 8.954305,0 20,0 Z" id="path-1"></path>
        <path d="M0,0 L68,0 L68,68 L0,68 L0,0 Z" id="path-2"></path>
    </defs>
    <g id="Light" stroke="none" fill="none" xlink:href="#path-1" fill-rule="evenodd">
        <use fill="#262624" xlink:href="#path-1"></use>
        <g id="Logo" stroke-width="1" transform="translate(28, 33)">
            <g id="Frame" transform="translate(18, 0)" xlink:href="#path-2">
                <rect id="Rectangle-2" stroke="#3178C6" x="0.5" y="0.5" width="19" height="19" rx="4"></rect>
                <rect id="Rectangle-2" stroke="#2AA198" x="24.5" y="0.5" width="19" height="19" rx="8"></rect>
                <rect id="Rectangle-2" stroke="#3CB371" x="48.5" y="0.5" width="19" height="19" rx="9.5"></rect>
                <rect id="Rectangle-2" stroke="#FF9800" x="0.5" y="24.5" width="19" height="19" rx="4"></rect>
                <rect id="Rectangle-2" stroke="#6E6E6E" x="24.5" y="24.5" width="19" height="19" rx="8"></rect>
                <rect id="Rectangle-2" stroke="#9C27B0" x="48.5" y="24.5" width="19" height="19" rx="9.5"></rect>
                <rect id="Rectangle-2" stroke="#E91E63" x="0.5" y="48.5" width="19" height="19" rx="4"></rect>
                <rect id="Rectangle-2" stroke="#FDD835" x="24.5" y="48.5" width="19" height="19" rx="8"></rect>
                <rect id="Rectangle-2" stroke="#F44336" x="48.5" y="48.5" width="19" height="19" rx="9.5"></rect>
            </g>
            <g id="Group" transform="translate(0, 68)" fill="#F2F2F2" fill-rule="nonzero">
                <g id="nuitral">
                    <path d="M27.46,19.776 C27.46,18.88 27.208,18.224 26.704,17.808 C26.2,17.392 25.524,17.184 24.676,17.184 C24.036,17.184 23.468,17.264 22.972,17.424 C22.476,17.584 22.052,17.768 21.7,17.976 L21.7,26.952 C21.62,26.984 21.5,27.02 21.34,27.06 C21.18,27.1 21.004,27.12 20.812,27.12 C20.124,27.12 19.78,26.832 19.78,26.256 L19.78,18.072 C19.78,17.736 19.848,17.46 19.984,17.244 C20.12,17.028 20.356,16.816 20.692,16.608 C21.108,16.352 21.66,16.12 22.348,15.912 C23.036,15.704 23.812,15.6 24.676,15.6 C26.132,15.6 27.28,15.928 28.12,16.584 C28.96,17.24 29.38,18.272 29.38,19.68 L29.38,26.952 C29.3,26.984 29.176,27.02 29.008,27.06 C28.84,27.1 28.668,27.12 28.492,27.12 C27.804,27.12 27.46,26.832 27.46,26.256 L27.46,19.776 Z" id="Path"></path>
                    <path d="M32.98,15.96 C33.06,15.928 33.184,15.892 33.352,15.852 C33.52,15.812 33.7,15.792 33.892,15.792 C34.564,15.792 34.9,16.088 34.9,16.68 L34.9,22.848 C34.9,23.888 35.172,24.628 35.716,25.068 C36.26,25.508 37.012,25.728 37.972,25.728 C38.612,25.728 39.156,25.66 39.604,25.524 C40.052,25.388 40.404,25.248 40.66,25.104 L40.66,15.96 C40.74,15.928 40.864,15.892 41.032,15.852 C41.2,15.812 41.372,15.792 41.548,15.792 C42.236,15.792 42.58,16.088 42.58,16.68 L42.58,25.032 C42.58,25.368 42.536,25.636 42.448,25.836 C42.36,26.036 42.148,26.232 41.812,26.424 C41.444,26.632 40.936,26.832 40.288,27.024 C39.64,27.216 38.86,27.312 37.948,27.312 C36.348,27.312 35.12,26.96 34.264,26.256 C33.408,25.552 32.98,24.448 32.98,22.944 L32.98,15.96 Z" id="Path"></path>
                    <path d="M48.22,26.952 C48.14,26.984 48.02,27.02 47.86,27.06 C47.7,27.1 47.524,27.12 47.332,27.12 C46.644,27.12 46.3,26.832 46.3,26.256 L46.3,15.96 C46.38,15.928 46.504,15.892 46.672,15.852 C46.84,15.812 47.02,15.792 47.212,15.792 C47.884,15.792 48.22,16.088 48.22,16.68 L48.22,26.952 Z M46.012,12.408 C46.012,12.072 46.128,11.788 46.36,11.556 C46.592,11.324 46.892,11.208 47.26,11.208 C47.628,11.208 47.924,11.324 48.148,11.556 C48.372,11.788 48.484,12.072 48.484,12.408 C48.484,12.744 48.372,13.028 48.148,13.26 C47.924,13.492 47.628,13.608 47.26,13.608 C46.892,13.608 46.592,13.492 46.36,13.26 C46.128,13.028 46.012,12.744 46.012,12.408 Z" id="Shape"></path>
                    <path d="M55.756,27.312 C54.636,27.312 53.728,27.064 53.032,26.568 C52.336,26.072 51.988,25.248 51.988,24.096 L51.988,12.696 C52.068,12.664 52.192,12.628 52.36,12.588 C52.528,12.548 52.708,12.528 52.9,12.528 C53.572,12.528 53.908,12.816 53.908,13.392 L53.908,16.152 L57.844,16.152 C57.892,16.232 57.94,16.34 57.988,16.476 C58.036,16.612 58.06,16.76 58.06,16.92 C58.06,17.464 57.82,17.736 57.34,17.736 L53.908,17.736 L53.908,23.976 C53.908,24.616 54.088,25.068 54.448,25.332 C54.808,25.596 55.316,25.728 55.972,25.728 C56.244,25.728 56.548,25.68 56.884,25.584 C57.22,25.488 57.5,25.376 57.724,25.248 C57.82,25.344 57.908,25.464 57.988,25.608 C58.068,25.752 58.108,25.92 58.108,26.112 C58.108,26.464 57.9,26.752 57.484,26.976 C57.068,27.2 56.492,27.312 55.756,27.312 Z" id="Path"></path>
                    <path d="M62.812,26.952 C62.732,26.984 62.612,27.02 62.452,27.06 C62.292,27.1 62.116,27.12 61.924,27.12 C61.236,27.12 60.892,26.832 60.892,26.256 L60.892,18.12 C60.892,17.752 60.96,17.46 61.096,17.244 C61.232,17.028 61.46,16.816 61.78,16.608 C62.196,16.336 62.76,16.1 63.472,15.9 C64.184,15.7 64.988,15.6 65.884,15.6 C67.164,15.6 67.804,15.92 67.804,16.56 C67.804,16.72 67.78,16.868 67.732,17.004 C67.684,17.14 67.62,17.256 67.54,17.352 C67.38,17.32 67.172,17.288 66.916,17.256 C66.66,17.224 66.404,17.208 66.148,17.208 C65.412,17.208 64.764,17.284 64.204,17.436 C63.644,17.588 63.18,17.768 62.812,17.976 L62.812,26.952 Z" id="Path"></path>
                    <path d="M73.9,25.752 C74.572,25.752 75.128,25.684 75.568,25.548 C76.008,25.412 76.324,25.28 76.516,25.152 L76.516,21.672 L73.54,21.984 C72.708,22.064 72.092,22.252 71.692,22.548 C71.292,22.844 71.092,23.28 71.092,23.856 C71.092,24.464 71.324,24.932 71.788,25.26 C72.252,25.588 72.956,25.752 73.9,25.752 Z M73.876,15.6 C75.268,15.6 76.372,15.912 77.188,16.536 C78.004,17.16 78.412,18.144 78.412,19.488 L78.412,25.176 C78.412,25.528 78.344,25.796 78.208,25.98 C78.072,26.164 77.868,26.336 77.596,26.496 C77.212,26.72 76.704,26.916 76.072,27.084 C75.44,27.252 74.716,27.336 73.9,27.336 C72.396,27.336 71.232,27.04 70.408,26.448 C69.584,25.856 69.172,25 69.172,23.88 C69.172,22.824 69.516,22.028 70.204,21.492 C70.892,20.956 71.86,20.624 73.108,20.496 L76.516,20.16 L76.516,19.488 C76.516,18.688 76.276,18.104 75.796,17.736 C75.316,17.368 74.668,17.184 73.852,17.184 C73.18,17.184 72.548,17.28 71.956,17.472 C71.364,17.664 70.836,17.88 70.372,18.12 C70.244,18.008 70.128,17.88 70.024,17.736 C69.92,17.592 69.868,17.432 69.868,17.256 C69.868,17.032 69.924,16.848 70.036,16.704 C70.148,16.56 70.324,16.424 70.564,16.296 C70.996,16.072 71.492,15.9 72.052,15.78 C72.612,15.66 73.22,15.6 73.876,15.6 Z" id="Shape"></path>
                    <path d="M84.028,26.952 C83.948,26.984 83.828,27.02 83.668,27.06 C83.508,27.1 83.332,27.12 83.14,27.12 C82.452,27.12 82.108,26.832 82.108,26.256 L82.108,11.448 C82.188,11.416 82.312,11.38 82.48,11.34 C82.648,11.3 82.82,11.28 82.996,11.28 C83.684,11.28 84.028,11.568 84.028,12.144 L84.028,26.952 Z" id="Path"></path>
                </g>
                <g id="theming" transform="translate(41, 30.104)">
                    <path d="M3.764,8.052 C3.204,8.052 2.75,7.928 2.402,7.68 C2.054,7.432 1.88,7.02 1.88,6.444 L1.88,0.744 C1.92,0.728 1.982,0.71 2.066,0.69 C2.15,0.67 2.24,0.66 2.336,0.66 C2.672,0.66 2.84,0.804 2.84,1.092 L2.84,2.472 L4.808,2.472 C4.832,2.512 4.856,2.566 4.88,2.634 C4.904,2.702 4.916,2.776 4.916,2.856 C4.916,3.128 4.796,3.264 4.556,3.264 L2.84,3.264 L2.84,6.384 C2.84,6.704 2.93,6.93 3.11,7.062 C3.29,7.194 3.544,7.26 3.872,7.26 C4.008,7.26 4.16,7.236 4.328,7.188 C4.496,7.14 4.636,7.084 4.748,7.02 C4.796,7.068 4.84,7.128 4.88,7.2 C4.92,7.272 4.94,7.356 4.94,7.452 C4.94,7.628 4.836,7.772 4.628,7.884 C4.42,7.996 4.132,8.052 3.764,8.052 Z" id="Path"></path>
                    <path d="M7.316,7.872 C7.276,7.888 7.216,7.906 7.136,7.926 C7.056,7.946 6.968,7.956 6.872,7.956 C6.528,7.956 6.356,7.812 6.356,7.524 L6.356,0.12 C6.396,0.104 6.458,0.086 6.542,0.066 C6.626,0.046 6.716,0.036 6.812,0.036 C7.148,0.036 7.316,0.18 7.316,0.468 L7.316,2.628 C7.508,2.516 7.734,2.416 7.994,2.328 C8.254,2.24 8.548,2.196 8.876,2.196 C9.212,2.196 9.518,2.24 9.794,2.328 C10.07,2.416 10.308,2.55 10.508,2.73 C10.708,2.91 10.864,3.138 10.976,3.414 C11.088,3.69 11.144,4.012 11.144,4.38 L11.144,7.872 C11.104,7.888 11.042,7.906 10.958,7.926 C10.874,7.946 10.788,7.956 10.7,7.956 C10.356,7.956 10.184,7.812 10.184,7.524 L10.184,4.404 C10.184,3.924 10.052,3.568 9.788,3.336 C9.524,3.104 9.176,2.988 8.744,2.988 C8.464,2.988 8.202,3.038 7.958,3.138 C7.714,3.238 7.5,3.36 7.316,3.504 L7.316,7.872 Z" id="Path"></path>
                    <path d="M13.628,5.688 C13.844,6.736 14.532,7.26 15.692,7.26 C16.028,7.26 16.332,7.204 16.604,7.092 C16.876,6.98 17.092,6.86 17.252,6.732 C17.444,6.844 17.54,6.996 17.54,7.188 C17.54,7.3 17.49,7.408 17.39,7.512 C17.29,7.616 17.154,7.708 16.982,7.788 C16.81,7.868 16.61,7.932 16.382,7.98 C16.154,8.028 15.908,8.052 15.644,8.052 C14.716,8.052 13.982,7.8 13.442,7.296 C12.902,6.792 12.632,6.056 12.632,5.088 C12.632,4.632 12.698,4.226 12.83,3.87 C12.962,3.514 13.146,3.212 13.382,2.964 C13.618,2.716 13.9,2.526 14.228,2.394 C14.556,2.262 14.912,2.196 15.296,2.196 C15.656,2.196 15.988,2.256 16.292,2.376 C16.596,2.496 16.858,2.666 17.078,2.886 C17.298,3.106 17.47,3.366 17.594,3.666 C17.718,3.966 17.78,4.296 17.78,4.656 C17.78,4.832 17.74,4.958 17.66,5.034 C17.58,5.11 17.468,5.156 17.324,5.172 L13.628,5.688 Z M15.284,2.976 C14.796,2.976 14.392,3.146 14.072,3.486 C13.752,3.826 13.584,4.312 13.568,4.944 L16.868,4.488 C16.828,4.048 16.674,3.686 16.406,3.402 C16.138,3.118 15.764,2.976 15.284,2.976 Z" id="Shape"></path>
                    <path d="M26.204,4.128 C26.204,3.736 26.092,3.448 25.868,3.264 C25.644,3.08 25.344,2.988 24.968,2.988 C24.448,2.988 23.984,3.172 23.576,3.54 C23.624,3.7 23.648,3.872 23.648,4.056 L23.648,7.872 C23.608,7.888 23.546,7.906 23.462,7.926 C23.378,7.946 23.292,7.956 23.204,7.956 C22.86,7.956 22.688,7.812 22.688,7.524 L22.688,4.128 C22.688,3.736 22.576,3.448 22.352,3.264 C22.128,3.08 21.824,2.988 21.44,2.988 C21.184,2.988 20.942,3.028 20.714,3.108 C20.486,3.188 20.292,3.28 20.132,3.384 L20.132,7.872 C20.092,7.888 20.032,7.906 19.952,7.926 C19.872,7.946 19.784,7.956 19.688,7.956 C19.344,7.956 19.172,7.812 19.172,7.524 L19.172,3.432 C19.172,3.272 19.206,3.138 19.274,3.03 C19.342,2.922 19.46,2.812 19.628,2.7 C19.844,2.564 20.118,2.446 20.45,2.346 C20.782,2.246 21.116,2.196 21.452,2.196 C21.844,2.196 22.192,2.254 22.496,2.37 C22.8,2.486 23.032,2.644 23.192,2.844 C23.4,2.66 23.66,2.506 23.972,2.382 C24.284,2.258 24.64,2.196 25.04,2.196 C25.688,2.196 26.204,2.35 26.588,2.658 C26.972,2.966 27.164,3.44 27.164,4.08 L27.164,7.872 C27.124,7.888 27.062,7.906 26.978,7.926 C26.894,7.946 26.808,7.956 26.72,7.956 C26.376,7.956 26.204,7.812 26.204,7.524 L26.204,4.128 Z" id="Path"></path>
                    <path d="M29.984,7.872 C29.944,7.888 29.884,7.906 29.804,7.926 C29.724,7.946 29.636,7.956 29.54,7.956 C29.196,7.956 29.024,7.812 29.024,7.524 L29.024,2.376 C29.064,2.36 29.126,2.342 29.21,2.322 C29.294,2.302 29.384,2.292 29.48,2.292 C29.816,2.292 29.984,2.44 29.984,2.736 L29.984,7.872 Z M28.88,0.6 C28.88,0.432 28.938,0.29 29.054,0.174 C29.17,0.058 29.32,0 29.504,0 C29.688,0 29.836,0.058 29.948,0.174 C30.06,0.29 30.116,0.432 30.116,0.6 C30.116,0.768 30.06,0.91 29.948,1.026 C29.836,1.142 29.688,1.2 29.504,1.2 C29.32,1.2 29.17,1.142 29.054,1.026 C28.938,0.91 28.88,0.768 28.88,0.6 Z" id="Shape"></path>
                    <path d="M35.696,4.284 C35.696,3.836 35.57,3.508 35.318,3.3 C35.066,3.092 34.728,2.988 34.304,2.988 C33.984,2.988 33.7,3.028 33.452,3.108 C33.204,3.188 32.992,3.28 32.816,3.384 L32.816,7.872 C32.776,7.888 32.716,7.906 32.636,7.926 C32.556,7.946 32.468,7.956 32.372,7.956 C32.028,7.956 31.856,7.812 31.856,7.524 L31.856,3.432 C31.856,3.264 31.89,3.126 31.958,3.018 C32.026,2.91 32.144,2.804 32.312,2.7 C32.52,2.572 32.796,2.456 33.14,2.352 C33.484,2.248 33.872,2.196 34.304,2.196 C35.032,2.196 35.606,2.36 36.026,2.688 C36.446,3.016 36.656,3.532 36.656,4.236 L36.656,7.872 C36.616,7.888 36.554,7.906 36.47,7.926 C36.386,7.946 36.3,7.956 36.212,7.956 C35.868,7.956 35.696,7.812 35.696,7.524 L35.696,4.284 Z" id="Path"></path>
                    <path d="M42.164,7.32 C42.028,7.432 41.842,7.528 41.606,7.608 C41.37,7.688 41.088,7.728 40.76,7.728 C40.408,7.728 40.076,7.678 39.764,7.578 C39.452,7.478 39.178,7.318 38.942,7.098 C38.706,6.878 38.518,6.592 38.378,6.24 C38.238,5.888 38.168,5.46 38.168,4.956 C38.168,4.5 38.236,4.1 38.372,3.756 C38.508,3.412 38.698,3.124 38.942,2.892 C39.186,2.66 39.476,2.486 39.812,2.37 C40.148,2.254 40.52,2.196 40.928,2.196 C41.296,2.196 41.634,2.242 41.942,2.334 C42.25,2.426 42.508,2.54 42.716,2.676 C42.836,2.756 42.934,2.846 43.01,2.946 C43.086,3.046 43.124,3.168 43.124,3.312 L43.124,8.136 C43.124,8.536 43.058,8.874 42.926,9.15 C42.794,9.426 42.61,9.65 42.374,9.822 C42.138,9.994 41.86,10.12 41.54,10.2 C41.22,10.28 40.876,10.32 40.508,10.32 C40.1,10.32 39.754,10.278 39.47,10.194 C39.186,10.11 38.992,10.036 38.888,9.972 C38.648,9.836 38.528,9.664 38.528,9.456 C38.528,9.344 38.554,9.25 38.606,9.174 C38.658,9.098 38.724,9.04 38.804,9 C38.972,9.128 39.208,9.246 39.512,9.354 C39.816,9.462 40.148,9.516 40.508,9.516 C41.044,9.516 41.454,9.402 41.738,9.174 C42.022,8.946 42.164,8.58 42.164,8.076 L42.164,7.32 Z M40.868,6.936 C41.188,6.936 41.45,6.886 41.654,6.786 C41.858,6.686 42.028,6.572 42.164,6.444 L42.164,3.324 C42.028,3.236 41.858,3.158 41.654,3.09 C41.45,3.022 41.208,2.988 40.928,2.988 C40.384,2.988 39.95,3.152 39.626,3.48 C39.302,3.808 39.14,4.296 39.14,4.944 C39.14,5.304 39.184,5.61 39.272,5.862 C39.36,6.114 39.482,6.32 39.638,6.48 C39.794,6.64 39.978,6.756 40.19,6.828 C40.402,6.9 40.628,6.936 40.868,6.936 Z" id="Shape"></path>
                </g>
            </g>
        </g>
    </g>
</svg>